<svg id="Group_2" data-name="Group 2" xmlns="http://www.w3.org/2000/svg" width="700" height="700" viewBox="0 0 700 700">
  <g id="Group_1" data-name="Group 1" transform="translate(-1143.682 -261.605)">
    <g id="Component_2_1" data-name="Component 2 – 1" transform="translate(1365.4 445)">
      <path id="Path_2" data-name="Path 2" d="M43.2,80H75.488V292.41q0,31.122-13.811,47.462T19.857,356.211q-3.112,0-7.781-.389t-9.337-1.167q-4.668-.778-9.142-1.945a29.944,29.944,0,0,1-7.2-2.723l6.224-27.621a55.656,55.656,0,0,0,23.731,5.057q16.339,0,21.591-11.476T43.2,284.629Z" transform="translate(13.6 -80)" fill="#64ffda"/>
      <path id="Path_1" data-name="Path 1" d="M155.678,352.321V241.447a178.725,178.725,0,0,0-1.751-26.649q-1.751-11.476-6.419-19.062a30.017,30.017,0,0,0-12.643-11.476q-7.975-3.89-20.813-3.89a51.506,51.506,0,0,0-33.067,11.865,53.34,53.34,0,0,0-19.062,30.539V352.321H30.8V80H61.922v99.592h1.556a76.564,76.564,0,0,1,24.314-19.257q14.2-7.2,35.207-7.2,16.339,0,28.4,3.7a41.929,41.929,0,0,1,20.035,13.032q7.975,9.337,11.671,25.092t3.7,39.876V352.321Z" transform="translate(69.764 -80)" fill="#64ffda"/>
    </g>
  </g>
  <g id="Polygon_2" data-name="Polygon 2" fill="none">
    <path d="M350,0,700,350,350,700,0,350Z" stroke="none"/>
    <path d="M 350 35.35528564453125 L 35.3553466796875 349.9999694824219 L 350 664.6446533203125 L 664.6446533203125 349.9999694824219 L 350 35.35528564453125 M 350 -6.103515625e-05 L 700 349.9999694824219 L 350 700 L 0 349.9999694824219 L 350 -6.103515625e-05 Z" stroke="none" fill="#64ffda"/>
  </g>
</svg>
