<svg xmlns="http://www.w3.org/2000/svg" width="332.082" height="357.51" viewBox="0 0 332.082 357.51">
  <g id="Group_1" data-name="Group 1" transform="translate(-1365.4 -445)">
    <g id="Component_2_1" data-name="Component 2 – 1" transform="translate(1365.4 445)">
      <path id="Path_2" data-name="Path 2" d="M59.916,80H101.71V354.931q0,40.283-17.876,61.431T29.7,437.51q-4.028,0-10.071-.5T7.549,435.5q-6.042-1.007-11.833-2.518a38.758,38.758,0,0,1-9.315-3.525L-5.543,393.7a72.038,72.038,0,0,0,30.716,6.546q21.149,0,27.946-14.854t6.8-40.535Z" transform="translate(13.6 -80)" fill="#64ffda"/>
      <path id="Path_1" data-name="Path 1" d="M192.435,432.475V288.967a231.331,231.331,0,0,0-2.266-34.492q-2.266-14.854-8.308-24.673A38.853,38.853,0,0,0,165.5,214.948q-10.322-5.035-26.939-5.035-23.666,0-42.8,15.358A69.04,69.04,0,0,0,71.083,264.8V432.475H30.8V80H71.083V208.905H73.1a99.1,99.1,0,0,1,31.471-24.925q18.379-9.315,45.57-9.315,21.148,0,36.758,4.784a54.271,54.271,0,0,1,25.932,16.868q10.322,12.085,15.106,32.478t4.784,51.612V432.475Z" transform="translate(99.364 -80)" fill="#64ffda"/>
    </g>
  </g>
</svg>
